<?xml version="1.0" encoding="UTF-8"?>
<svg version="1.1" xmlns="http://www.w3.org/2000/svg" width="177" height="55">
<path d="M0 0 C1.98 0 3.96 0 6 0 C6 1.32 6 2.64 6 4 C8.97 4.495 8.97 4.495 12 5 C12 4.01 12 3.02 12 2 C14.375 2.1875 14.375 2.1875 17 3 C18.3125 5.5625 18.3125 5.5625 19 8 C21.31 8.33 23.62 8.66 26 9 C25.95875 9.928125 25.9175 10.85625 25.875 11.8125 C25.72863661 15.15809719 25.72863661 15.15809719 28 18 C27.87106876 22.77045604 25.32888847 25.82963002 22 29 C15.86509252 34.27921116 8.9562746 35.61115951 1 36 C-7.89590549 35.28069411 -13.98041122 30.4370399 -19.71484375 24.09765625 C-21.31148255 21.49159231 -21.39122019 20.00901458 -21 17 C-20.01 15.515 -20.01 15.515 -19 14 C-19.30840599 11.84725052 -19.30840599 11.84725052 -20 10 C-16.76908333 8.21742529 -14.67481998 8 -11 8 C-11.33 6.35 -11.66 4.7 -12 3 C-9.625 2.375 -9.625 2.375 -7 2 C-6.34 2.66 -5.68 3.32 -5 4 C-1.91652174 4.16681109 -1.91652174 4.16681109 1 4 C0.67 2.68 0.34 1.36 0 0 Z M-11.125 14.3125 C-11.84945313 14.92738281 -12.57390625 15.54226562 -13.3203125 16.17578125 C-15.3386818 17.95453373 -15.3386818 17.95453373 -15 21 C-12.50846248 24.69116669 -10.03985604 27.08638398 -6 29 C-5.34 28.67 -4.68 28.34 -4 28 C-4.495 27.34 -4.99 26.68 -5.5 26 C-7.53084499 21.93831003 -7.35925552 19.52661957 -7 15 C-6 12.5 -6 12.5 -5 11 C-7.90614132 11 -8.9568648 12.43578082 -11.125 14.3125 Z M12 11 C12.32484375 11.5671875 12.6496875 12.134375 12.984375 12.71875 C14.08329872 15.18710174 14.26838334 16.81603219 14.25 19.5 C14.25515625 20.2528125 14.2603125 21.005625 14.265625 21.78125 C13.97250404 24.2296721 13.21816769 25.87304054 12 28 C17.01113235 26.5682479 18.94469549 24.01554307 22 20 C19.90336901 16.02743602 17.69924405 13.56101511 14 11 C13.34 11 12.68 11 12 11 Z M4 16 C4 16.99 4 17.98 4 19 C2.35 19 0.7 19 -1 19 C-0.28436734 21.0162233 -0.28436734 21.0162233 1 23 C2.9519572 23.9049261 2.9519572 23.9049261 5 24 C5.66 23.67 6.32 23.34 7 23 C7 21.02 7 19.04 7 17 C6.01 16.67 5.02 16.34 4 16 Z " fill="#DEE1E3" transform="translate(28,5)"/>
<path d="M0 0 C3.10759479 3.6830753 3.57373521 7.11290043 3.42578125 11.77734375 C2.68913463 15.62277425 0.8404281 17.35774131 -2 20 C-6.50559641 21.50186547 -10.34213337 21.71589695 -14.75 19.8125 C-17.87570699 17.29456937 -19.64812877 15.11551849 -20.3203125 11.07421875 C-20.53092961 7.34629594 -20.23660855 5.40311086 -18.3125 2.125 C-12.57755836 -3.14494637 -7.11033926 -2.37011309 0 0 Z M-8 6 C-8 6.99 -8 7.98 -8 9 C-9.65 9 -11.3 9 -13 9 C-12.28436734 11.0162233 -12.28436734 11.0162233 -11 13 C-9.0480428 13.9049261 -9.0480428 13.9049261 -7 14 C-6.34 13.67 -5.68 13.34 -5 13 C-5 11.02 -5 9.04 -5 7 C-5.99 6.67 -6.98 6.34 -8 6 Z " fill="#D29B68" transform="translate(40,15)"/>
<path d="M0 0 C1.98 0 3.96 0 6 0 C6 1.32 6 2.64 6 4 C8.97 4.495 8.97 4.495 12 5 C12 4.01 12 3.02 12 2 C14.375 2.1875 14.375 2.1875 17 3 C18.3125 5.5625 18.3125 5.5625 19 8 C21.31 8.33 23.62 8.66 26 9 C25.95875 9.928125 25.9175 10.85625 25.875 11.8125 C25.72863661 15.15809719 25.72863661 15.15809719 28 18 C27.67873872 20.63434254 27.18644952 22.62710097 26 25 C24.68 25 23.36 25 22 25 C21.7525 23.205625 21.7525 23.205625 21.5 21.375 C20.34213225 16.71044706 18.00302558 14.782123 14.078125 12.19140625 C8.56490902 9.03063393 4.16792428 8.55546755 -2 10 C-4.73282956 10.88607102 -7.33861805 11.90693242 -10 13 C-10 12.01 -10 11.02 -10 10 C-8.1015625 8.39453125 -8.1015625 8.39453125 -5.625 6.8125 C-4.81289063 6.28269531 -4.00078125 5.75289062 -3.1640625 5.20703125 C-1 4 -1 4 1 4 C0.67 2.68 0.34 1.36 0 0 Z " fill="#E0E3E5" transform="translate(28,5)"/>
<path d="M0 0 C0.99 0.33 1.98 0.66 3 1 C2.67 1.66 2.34 2.32 2 3 C1.87994547 4.49649362 1.82468549 5.99874793 1.8125 7.5 C1.79832031 8.2940625 1.78414062 9.088125 1.76953125 9.90625 C1.80333697 12.22033317 1.80333697 12.22033317 4 14 C6.58354218 14.16687448 6.58354218 14.16687448 9 14 C8 16 8 16 5.875 17.125 C2.47608911 18.15945114 -0.46640886 18.1385722 -4 18 C-6.46611627 14.30082559 -6.71613826 10.29682956 -6 6 C-4.20636089 3.1899654 -2.98119065 1.49059532 0 0 Z " fill="#A63687" transform="translate(26,14)"/>
<path d="M0 0 C2.62187494 1.04874998 3.79371361 1.64931313 5.25 4.125 C5.4975 4.74375 5.745 5.3625 6 6 C1.375 11.875 1.375 11.875 -2 13 C-6.99733564 13.37017301 -9.95939179 13.06106683 -14 10 C-14 9.67 -14 9.34 -14 9 C-12.01432292 8.51171875 -10.02864583 8.0234375 -8.04296875 7.53515625 C-6.34316798 7.08989295 -4.66698046 6.55566015 -3 6 C-1.29144978 2.99992729 -1.29144978 2.99992729 0 0 Z " fill="#CC2F2B" transform="translate(37,23)"/>
<path d="M0 0 C1.66519519 0.34060811 3.33157466 0.67558396 5 1 C3.08523654 3.12751496 1.34676829 4.40500366 -1.125 5.9375 C-4.25339593 8.18178403 -4.32347888 8.5046409 -5 12 C-7.0625 13.75 -7.0625 13.75 -9 15 C-9.33 14.34 -9.66 13.68 -10 13 C-9.67 12.34 -9.34 11.68 -9 11 C-8.34 11 -7.68 11 -7 11 C-7 10.01 -7 9.02 -7 8 C-7.66 7.67 -8.32 7.34 -9 7 C-7.68 6.34 -6.36 5.68 -5 5 C-5.33 3.35 -5.66 1.7 -6 0 C-3.44211818 -1.27894091 -2.70140697 -0.77183056 0 0 Z " fill="#8B8D8F" transform="translate(22,8)"/>
<path d="M0 0 C0.33 0 0.66 0 1 0 C1 1.65 1 3.3 1 5 C1.99 5.33 2.98 5.66 4 6 C2.61019248 7.13243576 1.21285323 8.25563119 -0.1875 9.375 C-0.96480469 10.00148438 -1.74210937 10.62796875 -2.54296875 11.2734375 C-6.65392542 14.16221787 -9.98415923 15.28661947 -15 15 C-12.3642236 12.82936061 -9.78127896 10.86439296 -6.875 9.0625 C-3.88620223 6.91836247 -2.62616166 5.25232331 -1 2 C-0.67 1.34 -0.34 0.68 0 0 Z " fill="#AEB0B1" transform="translate(49,25)"/>
<path d="M0 0 C4 2 4 2 5 4 C5.33 2.68 5.66 1.36 6 0 C6.66 0 7.32 0 8 0 C8 3.63 8 7.26 8 11 C5 10 5 10 3 7 C2.67 8.32 2.34 9.64 2 11 C1.34 11 0.68 11 0 11 C0 7.37 0 3.74 0 0 Z " fill="#DEDEDE" transform="translate(34,43)"/>
<path d="M0 0 C0.99 0.33 1.98 0.66 3 1 C2.67 1.66 2.34 2.32 2 3 C1.77377919 4.70363822 1.59111527 6.41328701 1.4375 8.125 C1.35371094 9.03507812 1.26992188 9.94515625 1.18359375 10.8828125 C1.12300781 11.58148438 1.06242187 12.28015625 1 13 C-2.77070649 11.3327868 -4.0709374 9.66521894 -6 6 C-2.25 1.125 -2.25 1.125 0 0 Z " fill="#156291" transform="translate(26,14)"/>
<path d="M0 0 C7.625 0.875 7.625 0.875 11 2 C11 2.66 11 3.32 11 4 C9.7625 4.28875 8.525 4.5775 7.25 4.875 C4.27551258 5.61334794 1.666144 6.44474933 -1 8 C-0.67 8.99 -0.34 9.98 0 11 C-0.66 11 -1.32 11 -2 11 C-2.28571429 3.57142857 -2.28571429 3.57142857 0 0 Z " fill="#94B443" transform="translate(29,13)"/>
<path d="M0 0 C0.33 0 0.66 0 1 0 C0.67 2.97 0.34 5.94 0 9 C-4.98862849 9.29344873 -7.96229058 9.05887078 -12 6 C-12 5.67 -12 5.34 -12 5 C-10.01432292 4.51171875 -8.02864583 4.0234375 -6.04296875 3.53515625 C-4.34316798 3.08989295 -2.66698046 2.55566015 -1 2 C-0.67 1.34 -0.34 0.68 0 0 Z " fill="#E57A31" transform="translate(35,27)"/>
<path d="M0 0 C1.67542976 0.28604898 3.34385343 0.61781233 5 1 C4.01 2.485 4.01 2.485 3 4 C3.66 4.66 4.32 5.32 5 6 C4.625 8.625 4.625 8.625 4 11 C2.02 11 0.04 11 -2 11 C-2 10.01 -2 9.02 -2 8 C-0.68 8.33 0.64 8.66 2 9 C0.9790625 8.13375 0.9790625 8.13375 -0.0625 7.25 C-0.701875 6.5075 -1.34125 5.765 -2 5 C-1.80984746 2.78155374 -1.58477845 1.58477845 0 0 Z " fill="#DCDCDC" transform="translate(49,43)"/>
<path d="M0 0 C1.98 0 3.96 0 6 0 C6 1.98 6 3.96 6 6 C5.01 6 4.02 6 3 6 C3 6.66 3 7.32 3 8 C4.32 8 5.64 8 7 8 C7 8.66 7 9.32 7 10 C4.69 10 2.38 10 0 10 C0 6.7 0 3.4 0 0 Z " fill="#EFEFEF" transform="translate(22,44)"/>
<path d="M0 0 C0.99 0.33 1.98 0.66 3 1 C3 1.66 3 2.32 3 3 C3.66 3 4.32 3 5 3 C5 3.99 5 4.98 5 6 C4.34 6 3.68 6 3 6 C2.67 6.66 2.34 7.32 2 8 C-1 6 -1 6 -1.8125 4 C-1.874375 3.34 -1.93625 2.68 -2 2 C-1.34 1.34 -0.68 0.68 0 0 Z " fill="#D3D5D7" transform="translate(10,13)"/>
<path d="M0 0 C0.62003906 0.34289063 1.24007812 0.68578125 1.87890625 1.0390625 C-6.38305275 5.63131763 -6.38305275 5.63131763 -11.12109375 5.0390625 C-3.2871639 -1.48921237 -3.2871639 -1.48921237 0 0 Z " fill="#86878A" transform="translate(45.12109375,34.9609375)"/>
<path d="M0 0 C3 1 3 1 4 3 C4.13415472 5.6723621 4.04318541 8.32250488 4 11 C2 9.4375 2 9.4375 0 7 C-0.25 3.25 -0.25 3.25 0 0 Z " fill="#ECAD27" transform="translate(39,17)"/>
<path d="M0 0 C0.99 0 1.98 0 3 0 C3.3125 2.75 3.3125 2.75 3 6 C0.5 8.375 0.5 8.375 -2 10 C-2.33 9.34 -2.66 8.68 -3 8 C-2.67 7.34 -2.34 6.68 -2 6 C-1.34 6 -0.68 6 0 6 C0 5.01 0 4.02 0 3 C-0.66 2.67 -1.32 2.34 -2 2 C-1.34 1.34 -0.68 0.68 0 0 Z " fill="#BDC0C1" transform="translate(15,13)"/>
<path d="M0 0 C0.66 0 1.32 0 2 0 C2 3.63 2 7.26 2 11 C1.01 10.67 0.02 10.34 -1 10 C-1.33 8.35 -1.66 6.7 -2 5 C-1.34 5 -0.68 5 0 5 C0 3.35 0 1.7 0 0 Z " fill="#E6E6E6" transform="translate(40,43)"/>
<path d="M0 0 C0.99 0 1.98 0 3 0 C3 2.97 3 5.94 3 9 C1.35 7.35 -0.3 5.7 -2 4 C-1.34 2.68 -0.68 1.36 0 0 Z " fill="#0C63A1" transform="translate(22,17)"/>
<path d="M0 0 C0.66 0 1.32 0 2 0 C2.33 1.65 2.66 3.3 3 5 C1.02 5.99 1.02 5.99 -1 7 C-0.67 7.99 -0.34 8.98 0 10 C-0.66 10 -1.32 10 -2 10 C-2.25 3.375 -2.25 3.375 0 0 Z " fill="#7E9A3D" transform="translate(29,14)"/>
<path d="M0 0 C0.66 0 1.32 0 2 0 C2 2.64 2 5.28 2 8 C3.32 8 4.64 8 6 8 C6 8.66 6 9.32 6 10 C4.02 10 2.04 10 0 10 C0 6.7 0 3.4 0 0 Z " fill="#EAEAEA" transform="translate(11,44)"/>
<path d="M0 0 C1.67542976 0.28604898 3.34385343 0.61781233 5 1 C4.2884375 1.6496875 4.2884375 1.6496875 3.5625 2.3125 C1.76313043 4.02309613 1.76313043 4.02309613 1 7 C0.01 6.34 -0.98 5.68 -2 5 C-1.125 1.125 -1.125 1.125 0 0 Z " fill="#CECECE" transform="translate(49,43)"/>
<path d="M0 0 C2.97 0 5.94 0 9 0 C8 2 8 2 5.6875 3.125 C3 4 3 4 -1 4 C-0.67 2.68 -0.34 1.36 0 0 Z " fill="#A73A74" transform="translate(26,28)"/>
<path d="M0 0 C0.33 0 0.66 0 1 0 C0.67 2.64 0.34 5.28 0 8 C-0.66 8 -1.32 8 -2 8 C-2 7.34 -2 6.68 -2 6 C-3.32 5.34 -4.64 4.68 -6 4 C-4.7934375 3.566875 -4.7934375 3.566875 -3.5625 3.125 C-0.8673532 2.26737432 -0.8673532 2.26737432 0 0 Z " fill="#E95F2B" transform="translate(35,27)"/>
<path d="M0 0 C0 0.99 0 1.98 0 3 C-1.32 3.33 -2.64 3.66 -4 4 C-4.66 2.68 -5.32 1.36 -6 0 C-3.50907189 -1.24546405 -2.58919267 -0.7767578 0 0 Z " fill="#C9CCCE" transform="translate(22,8)"/>
<path d="M0 0 C1.65 1.32 3.3 2.64 5 4 C4.67 4.66 4.34 5.32 4 6 C2.68 6 1.36 6 0 6 C0 4.02 0 2.04 0 0 Z " fill="#C9CACB" transform="translate(50,24)"/>
<path d="M0 0 C0.99 0.33 1.98 0.66 3 1 C2.67 2.98 2.34 4.96 2 7 C1.34 7 0.68 7 0 7 C-1.125 2.25 -1.125 2.25 0 0 Z " fill="#BD322E" transform="translate(37,23)"/>
<path d="M0 0 C1.98 0.495 1.98 0.495 4 1 C3.01 1 2.02 1 1 1 C1 1.66 1 2.32 1 3 C2.32 3 3.64 3 5 3 C5 3.66 5 4.32 5 5 C3.35 5 1.7 5 0 5 C-0.33 4.34 -0.66 3.68 -1 3 C-0.67 2.01 -0.34 1.02 0 0 Z " fill="#C6C6C6" transform="translate(24,49)"/>
</svg>
