<?xml version="1.0" encoding="UTF-8"?>
<svg version="1.1" xmlns="http://www.w3.org/2000/svg" width="300" height="100">
<path d="M0 0 C84.48 0 168.96 0 256 0 C256 46.53 256 93.06 256 141 C171.52 141 87.04 141 0 141 C0 94.47 0 47.94 0 0 Z " fill="#F3F4F4" transform="translate(0,0)"/>
<path d="M0 0 C1.65 0 3.3 0 5 0 C5 1.65 5 3.3 5 5 C10.445 5.495 10.445 5.495 16 6 C16.66 5.01 17.32 4.02 18 3 C19.32 3.33 20.64 3.66 22 4 C21.34 5.98 20.68 7.96 20 10 C23.61973402 11.31626692 26.09567131 12 30 12 C32.25 13 32.25 13 34 14 C34 16 34 16 32.5 17.625 C32.005 18.07875 31.51 18.5325 31 19 C31.66 19 32.32 19 33 19 C35.1875 21.75 35.1875 21.75 37 25 C36.25871747 31.01532543 32.08790627 36.2196413 27.61328125 40.03515625 C18.48874617 46.30910665 7.0932382 49.54707601 -4 48 C-14.38780539 45.51756571 -22.90426635 39.76071828 -29.03515625 30.98046875 C-30.64402705 27.67804974 -30.09290551 25.40729366 -29 22 C-27.4375 19.0625 -27.4375 19.0625 -26 17 C-26.66 17 -27.32 17 -28 17 C-27.67 15.68 -27.34 14.36 -27 13 C-26.01 13 -25.02 13 -24 13 C-24 13.66 -24 14.32 -24 15 C-23.27683594 14.45859375 -23.27683594 14.45859375 -22.5390625 13.90625 C-21.90742187 13.4421875 -21.27578125 12.978125 -20.625 12.5 C-19.99851562 12.0359375 -19.37203125 11.571875 -18.7265625 11.09375 C-17 10 -17 10 -15 10 C-15.66 8.35 -16.32 6.7 -17 5 C-15.35 4.67 -13.7 4.34 -12 4 C-11.67 4.66 -11.34 5.32 -11 6 C-7.37 5.67 -3.74 5.34 0 5 C0 3.35 0 1.7 0 0 Z " fill="#252323" transform="translate(57,42)"/>
<path d="M0 0 C2.82714022 2.22181579 5.40159637 4.62150118 7.16796875 7.76171875 C7.52794796 10.80154321 7.50768446 12.26068553 5.76953125 14.82421875 C0.43277949 20.05550111 -5.83148926 25.53854254 -13.6328125 25.88671875 C-14.72142578 25.82484375 -14.72142578 25.82484375 -15.83203125 25.76171875 C-15.27515625 25.36984375 -14.71828125 24.97796875 -14.14453125 24.57421875 C-9.00248267 20.76563116 -9.00248267 20.76563116 -6.20703125 15.26171875 C-7.09214786 11.72125231 -9.13682697 10.1200225 -11.83203125 7.76171875 C-12.10015625 9.04046875 -12.36828125 10.31921875 -12.64453125 11.63671875 C-13.40393224 15.2584773 -13.53280928 15.56223743 -16.83203125 17.76171875 C-20.89968234 18.2794198 -22.9681325 18.38804534 -26.33203125 15.94921875 C-28.58080858 11.17056692 -27.87037912 6.85108576 -26.83203125 1.76171875 C-26.20783001 0.07868725 -25.55277277 -1.59427581 -24.83203125 -3.23828125 C-27.96532005 -1.91533709 -30.36626986 -0.7350934 -32.70703125 1.76171875 C-34.4546181 6.42195034 -34.482077 10.85026196 -33.83203125 15.76171875 C-31.63492144 20.23731281 -28.84903494 22.86054942 -24.83203125 25.76171875 C-33.4476041 25.22324545 -39.75776905 20.7272553 -45.59375 14.515625 C-46.83203125 12.76171875 -46.83203125 12.76171875 -47.20703125 9.76171875 C-44.10929739 3.00302669 -38.35456729 -1.03854659 -31.83203125 -4.23828125 C-21.62688613 -7.67071155 -8.78988294 -5.94113623 0 0 Z " fill="#E09C34" transform="translate(79.83203125,58.23828125)"/>
<path d="M0 0 C0.66 0.33 1.32 0.66 2 1 C1.68675781 1.71027344 1.37351562 2.42054687 1.05078125 3.15234375 C-0.01083332 6.0293587 -0.49502566 8.51897929 -0.8125 11.5625 C-0.92207031 12.49191406 -1.03164063 13.42132813 -1.14453125 14.37890625 C-0.96861394 17.56919039 -0.27220104 18.7842193 2 21 C5.41481611 21.42685201 7.82531829 21.66565297 10.875 19.9375 C12.53485045 17.07886867 12.69315029 14.25260697 13 11 C15.61526626 12.78046806 17.94940459 14.57849586 20 17 C20.25 20.625 20.25 20.625 19 24 C16.625 26.25 16.625 26.25 14 28 C13.34257813 28.78117187 13.34257813 28.78117187 12.671875 29.578125 C9.71062145 32.09657428 6.38383615 31.52199525 2.66015625 31.4140625 C0 31 0 31 -2.9375 28.875 C-3.9584375 27.451875 -3.9584375 27.451875 -5 26 C-5.763125 25.13375 -6.52625 24.2675 -7.3125 23.375 C-9.72337935 18.55324131 -9.77985411 14.2935552 -9 9 C-6.85591998 4.55301921 -4.52966623 2.02642963 0 0 Z " fill="#C9663A" transform="translate(54,54)"/>
<path d="M0 0 C5.625 1.125 5.625 1.125 8.11328125 4.81640625 C8.63857422 5.58017578 9.16386719 6.34394531 9.70507812 7.13085938 C10.23552734 7.93330078 10.76597656 8.73574219 11.3125 9.5625 C12.13717773 10.77196289 12.13717773 10.77196289 12.97851562 12.00585938 C14.33211027 13.99505498 15.66781145 15.99640541 17 18 C17.33 12.06 17.66 6.12 18 0 C19.32 0 20.64 0 22 0 C22 8.91 22 17.82 22 27 C16.37180671 25.87436134 16.37180671 25.87436134 14.10546875 22.69140625 C13.62529297 22.02689453 13.14511719 21.36238281 12.65039062 20.67773438 C12.16763672 19.97970703 11.68488281 19.28167969 11.1875 18.5625 C10.68541016 17.86833984 10.18332031 17.17417969 9.66601562 16.45898438 C6 11.30661139 6 11.30661139 6 9 C5.34 9 4.68 9 4 9 C4 14.94 4 20.88 4 27 C2.68 27 1.36 27 0 27 C0 18.09 0 9.18 0 0 Z " fill="#1D1B1C" transform="translate(172,54)"/>
<path d="M0 0 C5.94 0 11.88 0 18 0 C18 1.32 18 2.64 18 4 C13.71 4 9.42 4 5 4 C5 6.64 5 9.28 5 12 C8.96 12 12.92 12 17 12 C17 13.32 17 14.64 17 16 C13.04 16 9.08 16 5 16 C5 18.64 5 21.28 5 24 C9.29 24 13.58 24 18 24 C18 24.99 18 25.98 18 27 C12.06 27 6.12 27 0 27 C0 18.09 0 9.18 0 0 Z " fill="#1C1A1B" transform="translate(139,54)"/>
<path d="M0 0 C2.86498413 0.5324819 4.71805052 1.47952014 6.93359375 3.359375 C7.74609375 5.546875 7.74609375 5.546875 7.93359375 7.359375 C3.05859375 6.484375 3.05859375 6.484375 1.93359375 5.359375 C-0.39938058 5.31844563 -2.7334585 5.31695777 -5.06640625 5.359375 C-5.39640625 7.009375 -5.72640625 8.659375 -6.06640625 10.359375 C-5.3909375 10.55273438 -4.71546875 10.74609375 -4.01953125 10.9453125 C-3.1275 11.20570312 -2.23546875 11.46609375 -1.31640625 11.734375 C-0.4346875 11.98960938 0.44703125 12.24484375 1.35546875 12.5078125 C3.71454927 13.28702394 5.79541672 14.09765792 7.93359375 15.359375 C9.35401196 18.20021141 9.24811647 20.21414778 8.93359375 23.359375 C6.62707928 26.20407617 4.66426735 28.15196618 0.9453125 28.59765625 C-3.15889391 28.72871494 -5.48789811 28.68995108 -9.12890625 26.609375 C-11.06640625 24.359375 -11.06640625 24.359375 -11.06640625 20.359375 C-9.74640625 20.359375 -8.42640625 20.359375 -7.06640625 20.359375 C-6.40640625 21.349375 -5.74640625 22.339375 -5.06640625 23.359375 C-1.48283384 23.60953373 -1.48283384 23.60953373 1.93359375 23.359375 C2.26359375 21.709375 2.59359375 20.059375 2.93359375 18.359375 C2.34191406 18.20082031 1.75023437 18.04226562 1.140625 17.87890625 C-4.08503486 16.33593001 -7.71220181 14.90378101 -11.06640625 10.359375 C-11.69140625 7.859375 -11.69140625 7.859375 -11.06640625 5.359375 C-7.86635631 0.85930477 -5.32088943 -0.36210212 0 0 Z " fill="#222121" transform="translate(220.06640625,53.640625)"/>
<path d="M0 0 C0.66 0.66 1.32 1.32 2 2 C2.99 1.67 3.98 1.34 5 1 C5.54527344 1.66386719 6.09054688 2.32773438 6.65234375 3.01171875 C12.99578164 10.439505 19.37708585 16.24635695 29.41015625 17.23828125 C35.87311308 17.41912982 40.81133619 16.34337902 46.78515625 13.875 C49 13 49 13 51 13 C51 13.66 51 14.32 51 15 C49.54462432 15.83848804 48.08559627 16.67063934 46.625 17.5 C45.81289062 17.9640625 45.00078125 18.428125 44.1640625 18.90625 C42 20 42 20 40 20 C40 20.66 40 21.32 40 22 C31.17398105 24.47289369 23.1293909 23.02904023 15 19 C8.95230748 15.24396455 3.35595794 10.3829004 0 4 C0 2.68 0 1.36 0 0 Z " fill="#201E1F" transform="translate(27,67)"/>
<path d="M0 0 C9.01799175 0.2032744 14.32332169 2.56310506 20.875 8.6875 C21.57625 9.450625 22.2775 10.21375 23 11 C23.66 11.66 24.32 12.32 25 13 C25.43128773 16.04910393 25.34542299 17.49054934 23.6015625 20.0625 C18.26481074 25.29378236 12.00054199 30.77682379 4.19921875 31.125 C3.47347656 31.08375 2.74773437 31.0425 2 31 C2.556875 30.608125 3.11375 30.21625 3.6875 29.8125 C6.89599544 27.2977333 10.15661057 24.68677886 12 21 C12.51857679 15.79722954 12.57550093 11.34283549 10.5 6.5 C7.20395528 3.20395528 4.44292488 2.33287747 0 1 C0 0.67 0 0.34 0 0 Z " fill="#E9E7E5" transform="translate(62,53)"/>
<path d="M0 0 C-0.55429687 0.31453125 -1.10859375 0.6290625 -1.6796875 0.953125 C-2.76636719 1.59507813 -2.76636719 1.59507813 -3.875 2.25 C-4.59429687 2.66765625 -5.31359375 3.0853125 -6.0546875 3.515625 C-8.30026087 5.22911472 -9.06173607 6.34796827 -10 9 C-10.68073835 14.2401022 -10.65733258 18.6609892 -8.3125 23.4375 C-6.04094388 25.95462975 -3.74648095 28.01643043 -1 30 C-9.61557285 29.4615267 -15.9257378 24.96553655 -21.76171875 18.75390625 C-23 17 -23 17 -23.375 14 C-20.01526349 6.66966579 -13.23662551 1.94503233 -5.8125 -0.8125 C-3.6661989 -1.03453115 -2.06874815 -0.56108904 0 0 Z " fill="#E9E7E8" transform="translate(56,54)"/>
<path d="M0 0 C1.32 0 2.64 0 4 0 C4.33 0.66 4.66 1.32 5 2 C6.65 2 8.3 2 10 2 C9 5 9 5 6.5625 6.4375 C3.92150045 7.7314845 3.92150045 7.7314845 3.0859375 9.87890625 C1.78371306 12.42245974 0.26496922 13.69536973 -1.9375 15.5 C-4.1295835 17.30283503 -5.91835313 18.89034865 -7.6171875 21.171875 C-9 23 -9 23 -11.1875 23.75 C-12.0846875 23.87375 -12.0846875 23.87375 -13 24 C-13.75 22.4375 -13.75 22.4375 -14 20 C-12.86915563 17.49713591 -11.47860484 15.32992278 -10 13 C-10.66 13 -11.32 13 -12 13 C-11.67 11.68 -11.34 10.36 -11 9 C-10.01 9 -9.02 9 -8 9 C-8 9.66 -8 10.32 -8 11 C-7.27683594 10.45859375 -7.27683594 10.45859375 -6.5390625 9.90625 C-5.90742187 9.4421875 -5.27578125 8.978125 -4.625 8.5 C-3.99851562 8.0359375 -3.37203125 7.571875 -2.7265625 7.09375 C-1 6 -1 6 1 6 C0.34 4.35 -0.32 2.7 -1 1 C-0.67 0.67 -0.34 0.34 0 0 Z " fill="#414143" transform="translate(41,46)"/>
<path d="M0 0 C1 3 1 3 -0.046875 5.234375 C-5.59727411 13.43267093 -12.35950982 19.19331327 -22.1875 21.4375 C-23.445625 21.623125 -24.70375 21.80875 -26 22 C-26 21.34 -26 20.68 -26 20 C-24.730447 19.35165346 -23.45930294 18.70642185 -22.1875 18.0625 C-21.47980469 17.70285156 -20.77210937 17.34320313 -20.04296875 16.97265625 C-18 16 -18 16 -15 15 C-15.33 14.01 -15.66 13.02 -16 12 C-15.45730469 11.54109375 -14.91460937 11.0821875 -14.35546875 10.609375 C-13.28232422 9.68898438 -13.28232422 9.68898438 -12.1875 8.75 C-11.47980469 8.14671875 -10.77210937 7.5434375 -10.04296875 6.921875 C-7.94672504 5.06875443 -7.94672504 5.06875443 -6.40625 2.8125 C-5 1 -5 1 -2.3125 0.25 C-1.549375 0.1675 -0.78625 0.085 0 0 Z " fill="#3D3D3F" transform="translate(93,67)"/>
<path d="M0 0 C1.32 0 2.64 0 4 0 C4 7.59 4 15.18 4 23 C8.29 23 12.58 23 17 23 C17 23.99 17 24.98 17 26 C11.39 26 5.78 26 0 26 C0 17.42 0 8.84 0 0 Z " fill="#151414" transform="translate(107,55)"/>
<path d="M0 0 C1.65 0 3.3 0 5 0 C5 1.65 5 3.3 5 5 C5.99 5.33 6.98 5.66 8 6 C8.99 6.66 9.98 7.32 11 8 C10.01 8.66 9.02 9.32 8 10 C8 10.33 8 10.66 8 11 C7.154375 11.04898438 6.30875 11.09796875 5.4375 11.1484375 C-0.94709185 11.56924014 -6.85792595 12.19350763 -13 14 C-11.5993784 10.498446 -10.37735911 9.53516323 -7 8 C-6.505 7.46375 -6.01 6.9275 -5.5 6.375 C-4 5 -4 5 0 5 C0 3.35 0 1.7 0 0 Z " fill="#252323" transform="translate(57,42)"/>
<path d="M0 0 C4.75 0.75 4.75 0.75 7 3 C6.875 6.5 6.875 6.5 6 10 C3.65057458 12.01379322 2.44388057 12.03170576 -0.625 11.8125 C-3 11 -3 11 -5 8 C-4.625 4.3125 -4.625 4.3125 -4 1 C-3.67 1.99 -3.34 2.98 -3 4 C-1.68 4 -0.36 4 1 4 C0.67 2.68 0.34 1.36 0 0 Z " fill="#0B0C0C" transform="translate(59,63)"/>
<path d="M0 0 C2.475 0.495 2.475 0.495 5 1 C4.34 2.98 3.68 4.96 3 7 C3.66 7.33 4.32 7.66 5 8 C4.67 9.32 4.34 10.64 4 12 C3.42894531 11.80664062 2.85789062 11.61328125 2.26953125 11.4140625 C-4.7351329 9.16455191 -11.716406 7.97038478 -19 7 C-19 6.67 -19 6.34 -19 6 C-15.7 5.67 -12.4 5.34 -9 5 C-9.66 4.34 -10.32 3.68 -11 3 C-7.7 3 -4.4 3 -1 3 C-0.67 2.01 -0.34 1.02 0 0 Z " fill="#181617" transform="translate(74,45)"/>
<path d="M0 0 C2.61526626 1.78046806 4.94940459 3.57849586 7 6 C7.25 9.625 7.25 9.625 6 13 C3.1550874 15.92180213 0.91715871 17.14808062 -3 18 C-2.86722656 17.28714844 -2.73445313 16.57429688 -2.59765625 15.83984375 C-1.62594212 10.56989045 -0.7082546 5.3119095 0 0 Z " fill="#C62C2E" transform="translate(67,65)"/>
<path d="M0 0 C5.66442374 0.36504064 10.00703705 1.0554321 15 4 C15 4.33 15 4.66 15 5 C14.34773438 5.09796875 13.69546875 5.1959375 13.0234375 5.296875 C7.3329854 6.27046268 3.56194782 7.46449044 -1 11 C-1.99 11.495 -1.99 11.495 -3 12 C-2.88541307 10.56163249 -2.75790884 9.12429034 -2.625 7.6875 C-2.55539063 6.88699219 -2.48578125 6.08648437 -2.4140625 5.26171875 C-2 3 -2 3 0 0 Z " fill="#90B43B" transform="translate(56,53)"/>
<path d="M0 0 C0.66 0.33 1.32 0.66 2 1 C1.68289062 1.69480469 1.36578125 2.38960937 1.0390625 3.10546875 C-0.09401052 6.26188644 -0.40480011 8.97280167 -0.625 12.3125 C-0.69976562 13.38113281 -0.77453125 14.44976562 -0.8515625 15.55078125 C-0.90054688 16.35902344 -0.94953125 17.16726562 -1 18 C-5.7578125 16.28125 -5.7578125 16.28125 -7.9375 13.75 C-9 11 -9 11 -8.5 7.9375 C-6.49024996 4.00173951 -3.91802867 1.95901434 0 0 Z " fill="#2465A1" transform="translate(54,54)"/>
<path d="M0 0 C0.99 0 1.98 0 3 0 C3 2.64 3 5.28 3 8 C6.96 8 10.92 8 15 8 C15 9.32 15 10.64 15 12 C11.04 12 7.08 12 3 12 C3 14.64 3 17.28 3 20 C2.01 20 1.02 20 0 20 C0 13.4 0 6.8 0 0 Z " fill="#343333" transform="translate(141,58)"/>
<path d="M0 0 C1.5 1.375 1.5 1.375 3 3 C3 3.66 3 4.32 3 5 C3.763125 5.268125 4.52625 5.53625 5.3125 5.8125 C7.93032534 6.96921352 9.10703497 7.93494724 11 10 C11.99 10.66 12.98 11.32 14 12 C10.35713096 14.33143618 7.25281824 14.54126778 3 14 C-0.00548334 10.99451666 -0.16182925 8.25631312 -0.1875 4.1875 C-0.13966204 2.79108728 -0.08204828 1.39482079 0 0 Z " fill="#9C2277" transform="translate(45,65)"/>
<path d="M0 0 C2.9375 0.5625 2.9375 0.5625 5.3125 2.125 C7.56090519 5.49760779 7.50533945 7.58762383 6.9375 11.5625 C5.375 14 5.375 14 2.9375 15.5625 C-0.5625 16.125 -0.5625 16.125 -4.0625 15.5625 C-6.72356976 13.17436047 -7.84099624 11.54696115 -8.625 8.0625 C-7.55696126 3.31566113 -4.70899508 0.86491746 0 0 Z M-1.0625 2.5625 C-0.7325 3.8825 -0.4025 5.2025 -0.0625 6.5625 C-1.3825 6.5625 -2.7025 6.5625 -4.0625 6.5625 C-4.3925 5.5725 -4.7225 4.5825 -5.0625 3.5625 C-5.91637105 6.86817489 -5.91637105 6.86817489 -6.0625 10.5625 C-4.66564994 13.2094872 -4.66564994 13.2094872 -2.0625 14.5625 C1.07112718 14.65142339 1.07112718 14.65142339 3.9375 13.5625 C6.09252531 10.32996204 6.40606135 9.31099077 5.9375 5.5625 C4.79103452 3.66588257 4.79103452 3.66588257 2.9375 2.5625 C1.6175 2.5625 0.2975 2.5625 -1.0625 2.5625 Z " fill="#BAB2B3" transform="translate(60.0625,60.4375)"/>
<path d="M0 0 C1.41805831 0.28482368 2.83440379 0.57818144 4.25 0.875 C5.03890625 1.03742188 5.8278125 1.19984375 6.640625 1.3671875 C9 2 9 2 10.96875 3.0625 C13.52340026 4.24156935 15.4511445 4.19865409 18.25 4.125 C19.58804688 4.09792969 19.58804688 4.09792969 20.953125 4.0703125 C21.62859375 4.04710938 22.3040625 4.02390625 23 4 C23 5.33333333 23 6.66666667 23 8 C15.50627693 8.58519312 8.64875977 7.73992737 2 4 C0.6875 1.859375 0.6875 1.859375 0 0 Z " fill="#262323" transform="translate(40,82)"/>
<path d="M0 0 C0 0.66 0 1.32 0 2 C-1.45537568 2.83848804 -2.91440373 3.67063934 -4.375 4.5 C-5.18710938 4.9640625 -5.99921875 5.428125 -6.8359375 5.90625 C-9 7 -9 7 -11 7 C-11 7.66 -11 8.32 -11 9 C-12.98 9 -14.96 9 -17 9 C-16.67 8.34 -16.34 7.68 -16 7 C-19.63 7 -23.26 7 -27 7 C-27.33 6.01 -27.66 5.02 -28 4 C-26.56720703 4.06960937 -26.56720703 4.06960937 -25.10546875 4.140625 C-17.33386412 4.35757907 -11.34672509 4.00576506 -4.07421875 0.875 C-2 0 -2 0 0 0 Z " fill="#0E0D10" transform="translate(78,80)"/>
<path d="M0 0 C7.78571429 0.89835165 7.78571429 0.89835165 11 3 C12.35439668 5.70879335 12.06501451 8.00933268 12 11 C11.01 11.495 11.01 11.495 10 12 C10 11.01 10 10.02 10 9 C9.34 9 8.68 9 8 9 C7.5875 8.38125 7.175 7.7625 6.75 7.125 C4.48845406 4.37883708 2.37925104 3.90113361 -1 3 C-0.67 2.01 -0.34 1.02 0 0 Z " fill="#191818" transform="translate(217,66)"/>
<path d="M0 0 C0.66 0 1.32 0 2 0 C1.979375 0.763125 1.95875 1.52625 1.9375 2.3125 C1.87057159 5.10185786 1.87057159 5.10185786 3 8 C4.65 8.33 6.3 8.66 8 9 C8.33 9.99 8.66 10.98 9 12 C6.3125 12.8125 6.3125 12.8125 3 13 C-0.12771159 10.68821318 -1.78778899 9.27326604 -2.4375 5.375 C-2 3 -2 3 0 0 Z " fill="#292728" transform="translate(211,56)"/>
<path d="M0 0 C5 4 5 4 5.625 7.0625 C5.41875 8.031875 5.2125 9.00125 5 10 C2.525 11.485 2.525 11.485 0 13 C0 8.71 0 4.42 0 0 Z " fill="#B32A2C" transform="translate(67,65)"/>
<path d="M0 0 C0.33 0 0.66 0 1 0 C1.33 8.25 1.66 16.5 2 25 C1.01 25.33 0.02 25.66 -1 26 C-1.99 24.68 -2.98 23.36 -4 22 C-3 20 -3 20 -1 19 C-0.67 12.73 -0.34 6.46 0 0 Z " fill="#0F0D0E" transform="translate(190,54)"/>
<path d="M0 0 C0.66 0.33 1.32 0.66 2 1 C1.68289062 1.69480469 1.36578125 2.38960937 1.0390625 3.10546875 C-0.09401052 6.26188644 -0.40480011 8.97280167 -0.625 12.3125 C-0.69976562 13.38113281 -0.77453125 14.44976562 -0.8515625 15.55078125 C-0.90054688 16.35902344 -0.94953125 17.16726562 -1 18 C-1.66 18 -2.32 18 -3 18 C-3.22262606 15.91814549 -3.42757926 13.83439574 -3.625 11.75 C-3.74101563 10.58984375 -3.85703125 9.4296875 -3.9765625 8.234375 C-3.99967934 5.04425092 -3.80520773 3.57886818 -2 1 C-1.34 0.67 -0.68 0.34 0 0 Z " fill="#17538B" transform="translate(54,54)"/>
<path d="M0 0 C1.5 1.375 1.5 1.375 3 3 C3 3.66 3 4.32 3 5 C3.66 5.33 4.32 5.66 5 6 C4.67 6.99 4.34 7.98 4 9 C4.66 9.66 5.32 10.32 6 11 C5.34 11.66 4.68 12.32 4 13 C3.34 13 2.68 13 2 13 C0.21590198 9.93753253 -0.22880021 7.77920727 -0.125 4.25 C-0.10695312 3.45078125 -0.08890625 2.6515625 -0.0703125 1.828125 C-0.04710937 1.22484375 -0.02390625 0.6215625 0 0 Z " fill="#A92A81" transform="translate(45,65)"/>
<path d="M0 0 C-0.33 2.31 -0.66 4.62 -1 7 C-3.95409701 5.62845496 -6.44008376 4.01136276 -9 2 C-5.5647952 -0.29013653 -4.014669 -0.17842973 0 0 Z " fill="#D3832D" transform="translate(69,58)"/>
<path d="M0 0 C0.66 0 1.32 0 2 0 C1.67 1.98 1.34 3.96 1 6 C1.99 6.33 2.98 6.66 4 7 C-0.75 9.875 -0.75 9.875 -3 11 C-2.88590407 9.54077307 -2.75834456 8.08259402 -2.625 6.625 C-2.55539063 5.81289063 -2.48578125 5.00078125 -2.4140625 4.1640625 C-2 2 -2 2 0 0 Z " fill="#6C8C30" transform="translate(56,54)"/>
<path d="M0 0 C0.99 0.495 0.99 0.495 2 1 C1.01 1.495 1.01 1.495 0 2 C0 1.34 0 0.68 0 0 Z M-2 2 C-1.34 2.33 -0.68 2.66 0 3 C0 3.99 0 4.98 0 6 C-1.45706726 6.50367757 -2.91570096 7.00282556 -4.375 7.5 C-5.59316406 7.91765625 -5.59316406 7.91765625 -6.8359375 8.34375 C-9 9 -9 9 -11 9 C-11 8.34 -11 7.68 -11 7 C-10.43410156 6.72285156 -9.86820312 6.44570312 -9.28515625 6.16015625 C-8.55167969 5.79792969 -7.81820312 5.43570313 -7.0625 5.0625 C-5.96615234 4.52302734 -5.96615234 4.52302734 -4.84765625 3.97265625 C-3.03750973 3.13628173 -3.03750973 3.13628173 -2 2 Z " fill="#454548" transform="translate(78,80)"/>
<path d="M0 0 C0.25 5.625 0.25 5.625 -2 9 C-5.125 9.1875 -5.125 9.1875 -8 9 C-6.625 7.5 -6.625 7.5 -5 6 C-4.34 6 -3.68 6 -3 6 C-3 5.34 -3 4.68 -3 4 C-3.66 3.34 -4.32 2.68 -5 2 C-1.125 0 -1.125 0 0 0 Z " fill="#DD5927" transform="translate(66,74)"/>
<path d="M0 0 C0 0.66 0 1.32 0 2 C-4.0909066 5.31168629 -6.73628638 6.50130606 -12 6 C-11.01 5.67 -10.02 5.34 -9 5 C-9 4.34 -9 3.68 -9 3 C-2.25 0 -2.25 0 0 0 Z " fill="#1C1B1B" transform="translate(78,80)"/>
<path d="M0 0 C2 2 2 2 2.1953125 4.6015625 C2.17210938 5.59929687 2.14890625 6.59703125 2.125 7.625 C2.10695313 8.62789062 2.08890625 9.63078125 2.0703125 10.6640625 C2.03550781 11.82035156 2.03550781 11.82035156 2 13 C-1.57557183 8.8128172 -1.3513074 6.35743783 -1 1 C-0.67 0.67 -0.34 0.34 0 0 Z " fill="#E9B035" transform="translate(73,61)"/>
<path d="M0 0 C1.32 0 2.64 0 4 0 C4 0.99 4 1.98 4 3 C4.66 3 5.32 3 6 3 C5.67 4.32 5.34 5.64 5 7 C3.68 7 2.36 7 1 7 C1.33 5.02 1.66 3.04 2 1 C1.34 0.67 0.68 0.34 0 0 Z " fill="#7EA03C" transform="translate(56,53)"/>
<path d="M0 0 C1.32 0.66 2.64 1.32 4 2 C4 2.66 4 3.32 4 4 C2 5.625 2 5.625 0 7 C0 6.34 0 5.68 0 5 C-0.66 5 -1.32 5 -2 5 C-1.34 3.35 -0.68 1.7 0 0 Z " fill="#1A1718" transform="translate(87,54)"/>
<path d="M0 0 C1.98 0.99 3.96 1.98 6 3 C4.25 4.5625 4.25 4.5625 2 6 C-0.25 5.6875 -0.25 5.6875 -2 5 C-1.34 3.35 -0.68 1.7 0 0 Z " fill="#871760" transform="translate(53,73)"/>
<path d="M0 0 C2.64 0 5.28 0 8 0 C7.34 1.32 6.68 2.64 6 4 C1.125 2.25 1.125 2.25 0 0 Z " fill="#E27830" transform="translate(49,79)"/>
<path d="M0 0 C1.32 0 2.64 0 4 0 C4.33 1.32 4.66 2.64 5 4 C3.68 4.33 2.36 4.66 1 5 C0.34 3.68 -0.32 2.36 -1 1 C-0.67 0.67 -0.34 0.34 0 0 Z " fill="#262425" transform="translate(41,46)"/>
<path d="M0 0 C1.65 0 3.3 0 5 0 C5.33 0.99 5.66 1.98 6 3 C2.7 3 -0.6 3 -4 3 C-2.68 2.67 -1.36 2.34 0 2 C0 1.34 0 0.68 0 0 Z " fill="#322F30" transform="translate(57,87)"/>
<path d="M0 0 C2.64 0.33 5.28 0.66 8 1 C8 1.66 8 2.32 8 3 C5.6875 3.625 5.6875 3.625 3 4 C2.01 3.34 1.02 2.68 0 2 C0 1.34 0 0.68 0 0 Z " fill="#0F1312" transform="translate(55,71)"/>
<path d="M0 0 C0.66 0.33 1.32 0.66 2 1 C2 1.66 2 2.32 2 3 C2.66 3.33 3.32 3.66 4 4 C3.01 4 2.02 4 1 4 C0.67 4.99 0.34 5.98 0 7 C0 6.34 0 5.68 0 5 C-0.66 5 -1.32 5 -2 5 C-1.125 1.125 -1.125 1.125 0 0 Z " fill="#2B292B" transform="translate(31,54)"/>
<path d="M0 0 C1.5 1.375 1.5 1.375 3 3 C3 3.66 3 4.32 3 5 C1.35 5.33 -0.3 5.66 -2 6 C-2 4.35 -2 2.7 -2 1 C-1.34 0.67 -0.68 0.34 0 0 Z " fill="#191717" transform="translate(90,63)"/>
<path d="M0 0 C0.66 0.33 1.32 0.66 2 1 C2 2.32 2 3.64 2 5 C0.35 5.66 -1.3 6.32 -3 7 C-2.01 4.69 -1.02 2.38 0 0 Z " fill="#3A3A3B" transform="translate(41,53)"/>
</svg>
